<mxfile host="app.diagrams.net" modified="2022-11-25T09:53:14.761Z" agent="5.0 (Macintosh; Intel Mac OS X 10_15_7) AppleWebKit/537.36 (KHTML, like Gecko) Chrome/104.0.0.0 Safari/537.36" etag="jo3pvRw0njM_yb7kKM2g" version="20.3.7" type="github" pages="2">
  <diagram id="bE3X_ul95kseF47FSp_b" name="Page-1">
    <mxGraphModel dx="1522" dy="643" grid="1" gridSize="10" guides="1" tooltips="1" connect="1" arrows="1" fold="1" page="1" pageScale="1" pageWidth="850" pageHeight="1100" math="0" shadow="0">
      <root>
        <mxCell id="0" />
        <mxCell id="1" parent="0" />
        <mxCell id="Yr1zozGTX4kxi-9n5-Yf-2" value="教材版本/学期信息" style="rounded=0;whiteSpace=wrap;html=1;fillColor=#ffe6cc;strokeColor=#d79b00;fontSize=16;" vertex="1" parent="1">
          <mxGeometry x="80" y="560" width="680" height="60" as="geometry" />
        </mxCell>
        <mxCell id="Yr1zozGTX4kxi-9n5-Yf-3" value="年部/年级" style="rounded=0;whiteSpace=wrap;html=1;fillColor=#dae8fc;strokeColor=#6c8ebf;fontSize=16;" vertex="1" parent="1">
          <mxGeometry x="460" y="760" width="300" height="60" as="geometry" />
        </mxCell>
        <mxCell id="Yr1zozGTX4kxi-9n5-Yf-4" value="学科" style="rounded=0;whiteSpace=wrap;html=1;fillColor=#dae8fc;strokeColor=#6c8ebf;fontSize=16;" vertex="1" parent="1">
          <mxGeometry x="80" y="760" width="300" height="60" as="geometry" />
        </mxCell>
        <mxCell id="Yr1zozGTX4kxi-9n5-Yf-7" value="章节数据（目录id和知识点）" style="rounded=0;whiteSpace=wrap;html=1;fillColor=#f8cecc;strokeColor=#b85450;fontSize=16;" vertex="1" parent="1">
          <mxGeometry x="80" y="360" width="680" height="60" as="geometry" />
        </mxCell>
        <mxCell id="3myzdGaRyw3bUSuyY0mQ-1" value="出题" style="rounded=0;whiteSpace=wrap;html=1;fillColor=#f8cecc;strokeColor=#b85450;fontSize=16;" vertex="1" parent="1">
          <mxGeometry x="80" y="160" width="680" height="60" as="geometry" />
        </mxCell>
        <mxCell id="3myzdGaRyw3bUSuyY0mQ-9" value="&lt;font style=&quot;font-size: 16px;&quot;&gt;&lt;b&gt;固定不变（重点：可优化）&lt;/b&gt;&lt;/font&gt;" style="rounded=0;whiteSpace=wrap;html=1;dashed=1;labelBackgroundColor=none;labelBorderColor=none;fillColor=none;align=left;horizontal=1;verticalAlign=top;spacingTop=-3;spacing=9;spacingLeft=0;glass=1;shadow=1;strokeColor=#00CC00;" vertex="1" parent="1">
          <mxGeometry x="40" y="520" width="760" height="340" as="geometry" />
        </mxCell>
        <mxCell id="3myzdGaRyw3bUSuyY0mQ-13" value="" style="shape=flexArrow;endArrow=classic;html=1;rounded=0;fontSize=16;fontColor=none;fillColor=#f5f5f5;strokeColor=#666666;" edge="1" parent="1">
          <mxGeometry width="50" height="50" relative="1" as="geometry">
            <mxPoint x="220" y="750" as="sourcePoint" />
            <mxPoint x="360" y="630" as="targetPoint" />
          </mxGeometry>
        </mxCell>
        <mxCell id="3myzdGaRyw3bUSuyY0mQ-15" value="" style="shape=flexArrow;endArrow=classic;html=1;rounded=0;fontSize=16;fontColor=none;fillColor=#f5f5f5;strokeColor=#666666;" edge="1" parent="1">
          <mxGeometry width="50" height="50" relative="1" as="geometry">
            <mxPoint x="620" y="750" as="sourcePoint" />
            <mxPoint x="490" y="630" as="targetPoint" />
          </mxGeometry>
        </mxCell>
        <mxCell id="3myzdGaRyw3bUSuyY0mQ-16" value="" style="shape=flexArrow;endArrow=classic;html=1;rounded=0;fontSize=16;fontColor=none;fillColor=#f5f5f5;strokeColor=#666666;" edge="1" parent="1">
          <mxGeometry width="50" height="50" relative="1" as="geometry">
            <mxPoint x="420" y="550" as="sourcePoint" />
            <mxPoint x="420" y="430" as="targetPoint" />
            <Array as="points">
              <mxPoint x="420" y="480" />
              <mxPoint x="420" y="460" />
            </Array>
          </mxGeometry>
        </mxCell>
        <mxCell id="3myzdGaRyw3bUSuyY0mQ-17" value="" style="shape=flexArrow;endArrow=classic;html=1;rounded=0;fontSize=16;fontColor=none;fillColor=#f5f5f5;strokeColor=#666666;" edge="1" parent="1">
          <mxGeometry width="50" height="50" relative="1" as="geometry">
            <mxPoint x="424" y="350" as="sourcePoint" />
            <mxPoint x="424" y="230" as="targetPoint" />
            <Array as="points">
              <mxPoint x="424" y="280" />
              <mxPoint x="424" y="260" />
            </Array>
          </mxGeometry>
        </mxCell>
        <mxCell id="3myzdGaRyw3bUSuyY0mQ-18" value="&lt;font style=&quot;font-size: 16px;&quot;&gt;&lt;b&gt;有可能变&lt;/b&gt;&lt;/font&gt;" style="rounded=0;whiteSpace=wrap;html=1;dashed=1;labelBackgroundColor=none;labelBorderColor=none;fillColor=none;align=left;horizontal=1;verticalAlign=top;spacingTop=-3;spacing=9;spacingLeft=0;glass=1;shadow=1;strokeColor=#FF0000;" vertex="1" parent="1">
          <mxGeometry x="40" y="120" width="760" height="340" as="geometry" />
        </mxCell>
      </root>
    </mxGraphModel>
  </diagram>
  <diagram id="pfbkZJeBe-3WhjPo2jlU" name="Page-2">
    <mxGraphModel dx="1510" dy="797" grid="1" gridSize="10" guides="1" tooltips="1" connect="1" arrows="1" fold="1" page="1" pageScale="1" pageWidth="850" pageHeight="1100" math="0" shadow="0">
      <root>
        <mxCell id="0" />
        <mxCell id="1" parent="0" />
      </root>
    </mxGraphModel>
  </diagram>
</mxfile>
